HIERARCHY
ROOT RootJoint
{
    OFFSET   0.000000   0.000000   0.000000
    CHANNELS 6 Xposition Yposition Zposition Xrotation Yrotation Zrotation
    JOINT pelvis_lowerback
    {
        OFFSET   0.000000   0.093605   0.000000
        CHANNELS 3 Xrotation Yrotation Zrotation
        JOINT lowerback_torso
        {
            OFFSET   0.000000   0.100000   0.000000
            CHANNELS 3 Xrotation Yrotation Zrotation
            JOINT torso_head
            {
                OFFSET   0.000000   0.282350   0.000000
                CHANNELS 3 Xrotation Yrotation Zrotation
                End Site
                {
                    OFFSET   0.000000   0.192650   0.000000
                }
            }
            JOINT rTorso_Clavicle
            {
                OFFSET  -0.001000   0.157500   0.000000
                CHANNELS 3 Xrotation Yrotation Zrotation
                JOINT rShoulder
                {
                    OFFSET  -0.117647   0.000000   0.000000
                    CHANNELS 3 Xrotation Yrotation Zrotation
                    JOINT rElbow
                    {
                        OFFSET  -0.245000   0.000000   0.000000
                        CHANNELS 3 Xrotation Yrotation Zrotation
                        JOINT rWrist
                        {
                            OFFSET  -0.240000   0.000000   0.000000
                            CHANNELS 3 Xrotation Yrotation Zrotation
                            End Site
                            {
                                OFFSET  -0.116353  -0.002500   0.000000
                            }
                        }
                    }
                }
            }
            JOINT lTorso_Clavicle
            {
                OFFSET   0.001000   0.157500   0.000000
                CHANNELS 3 Xrotation Yrotation Zrotation
                JOINT lShoulder
                {
                    OFFSET   0.117647   0.000000   0.000000
                    CHANNELS 3 Xrotation Yrotation Zrotation
                    JOINT lElbow
                    {
                        OFFSET   0.245000   0.000000   0.000000
                        CHANNELS 3 Xrotation Yrotation Zrotation
                        JOINT lWrist
                        {
                            OFFSET   0.240000   0.000000   0.000000
                            CHANNELS 3 Xrotation Yrotation Zrotation
                            End Site
                            {
                                OFFSET   0.116353  -0.002500   0.000000
                            }
                        }
                    }
                }
            }
        }
    }
    JOINT rHip
    {
        OFFSET  -0.100000  -0.051395   0.000000
        CHANNELS 3 Xrotation Yrotation Zrotation
        JOINT rKnee
        {
            OFFSET   0.000000  -0.410000   0.000000
            CHANNELS 3 Xrotation Yrotation Zrotation
            JOINT rAnkle
            {
                OFFSET   0.000000  -0.390000   0.000000
                CHANNELS 3 Xrotation Yrotation Zrotation
                JOINT rToeJoint
                {
                    OFFSET   0.000000  -0.050000   0.130000
                    CHANNELS 3 Xrotation Yrotation Zrotation
                    End Site
                    {
                        OFFSET  -0.010000   0.002000   0.060000
                    }
                }
            }
        }
    }
    JOINT lHip
    {
        OFFSET   0.100000  -0.051395   0.000000
        CHANNELS 3 Xrotation Yrotation Zrotation
        JOINT lKnee
        {
            OFFSET   0.000000  -0.410000   0.000000
            CHANNELS 3 Xrotation Yrotation Zrotation
            JOINT lAnkle
            {
                OFFSET   0.000000  -0.390000   0.000000
                CHANNELS 3 Xrotation Yrotation Zrotation
                JOINT lToeJoint
                {
                    OFFSET   0.000000  -0.050000   0.130000
                    CHANNELS 3 Xrotation Yrotation Zrotation
                    End Site
                    {
                        OFFSET   0.010000   0.002000   0.060000
                    }
                }
            }
        }
    }
}
MOTION
Frames: 11
Frame Time:   0.008333
 -1.943304   0.924185   6.005196  -9.411043   6.406965  -0.193181   2.738198  -2.985875  -0.566933   2.544025  -1.454701   0.984958   1.626867   1.051322  -0.027295   4.311493  -6.419891   3.581940  10.972783  10.238566  48.159570 179.991767  69.648098 -179.995149  -0.578825   5.434301   0.881083   2.460265   0.010960  -4.130984   4.102416  -8.217691 -55.006475 -179.957947 -74.047698 -179.960254  -2.772026  -7.654297  -0.665726 -12.780320  -1.482286  -2.188428  29.093860   0.035929  -0.025478 -10.239296  -6.059797   1.303173  -2.197826  -0.009510   0.005825   7.749715   2.343413   0.838047  35.836204   0.001606   0.002926   2.188717   1.765172  -3.778790 -37.026828  -0.030143  -0.012002
 -1.941777   0.926094   6.017638  -9.447989   6.676370  -0.024296   2.606034  -3.195530  -0.517338   2.668152  -1.605782   1.044958   1.788646   1.080604  -0.062116   4.491729  -6.546446   3.597800  11.043033  10.138546  48.054498 179.992434  69.918876 -179.995671  -0.628062   5.445236   0.954092   2.653644  -0.202354  -4.073835   4.306080  -8.396065 -54.976511 -179.953630 -74.588741 -179.956635  -2.771636  -7.774590  -0.652490 -12.938084  -1.623178  -2.009402  27.827640   0.032753  -0.022563  -9.134628  -5.907308   1.121807  -1.926355  -0.008115   0.005538   7.649885   2.385464   0.926700  37.574575   0.001831   0.008251   2.893280   1.670175  -4.004295 -33.850063  -0.027368   0.005219
 -1.940276   0.927273   6.030300  -9.558437   6.950380   0.171949   2.478247  -3.377868  -0.493251   2.823058  -1.741680   1.083557   1.950144   1.108237  -0.095246   4.670319  -6.671924   3.614471  11.118791  10.036874  47.947536 179.993199  70.181694 -179.996223  -0.672535   5.415568   1.046658   2.861500  -0.396917  -4.030069   4.523414  -8.557540 -54.941019 -179.951471 -75.115497 -179.954891  -2.769958  -7.788102  -0.714423 -13.050848  -1.751709  -1.883562  26.786372   0.029188  -0.019802  -8.088362  -5.771106   0.949073  -1.622627  -0.006949   0.005357   7.632838   2.426340   1.050523  39.424545   0.001786   0.013476   3.552351   1.582621  -4.212714 -30.976034  -0.025011   0.018314
 -1.938794   0.927753   6.043108  -9.684817   7.223804   0.384105   2.333068  -3.538502  -0.486076   2.965840  -1.861192   1.105560   2.100942   1.134338  -0.127703   4.844261  -6.796533   3.631189  11.196170   9.937409  47.846457 179.993939  70.429700 -179.996718  -0.714449   5.367023   1.147914   3.073809  -0.565734  -3.999129   4.743081  -8.702045 -54.910693 -179.951626 -75.613558 -179.955227  -2.767982  -7.752789  -0.803425 -13.150787  -1.867142  -1.797326  25.843988   0.025823  -0.017419  -7.109990  -5.647185   0.785113  -1.340559  -0.005925   0.005116   7.671652   2.459705   1.202176  41.211837   0.001526   0.017774   4.170303   1.499359  -4.406175 -28.346347  -0.022665   0.027936
 -1.937328   0.927540   6.055996  -9.812334   7.499674   0.608081   2.175578  -3.681743  -0.491696   3.087174  -1.966932   1.115381   2.238737   1.158837  -0.159182   5.008732  -6.915951   3.646775  11.270233   9.842639  47.751684 179.994657  70.661726 -179.997178  -0.754337   5.314616   1.246681   3.281341  -0.715235  -3.976075   4.956555  -8.833039 -54.884682 -179.953494 -76.080950 -179.957138  -2.765974  -7.699628  -0.895908 -13.249560  -1.971048  -1.743460  24.970498   0.022771  -0.015425  -6.196436  -5.534240   0.629765  -1.081655  -0.005039   0.004839   7.744249   2.484947   1.376720  42.903848   0.001210   0.021146   4.747885   1.420386  -4.585810 -25.936973  -0.020272   0.034870
 -1.935872   0.926638   6.068926  -9.937870   7.779369   0.841845   2.012082  -3.809909  -0.506805   3.188211  -2.060832   1.116179   2.364481   1.181796  -0.189572   5.161514  -7.027519   3.660540  11.338614   9.753907  47.662735 179.995363  70.878033 -179.997629  -0.792423   5.265244   1.338989   3.479189  -0.850463  -3.957577   5.159493  -8.953204 -54.861593 -179.956509 -76.518123 -179.960118  -2.763965  -7.642215  -0.983918 -13.349621  -2.064634  -1.716469  24.155785   0.020048  -0.013774  -5.343707  -5.431201   0.482796  -0.844597  -0.004279   0.004546   7.837716   2.502976   1.568964  44.495605   0.000941   0.023692   5.287222   1.345672  -4.752678 -23.728927  -0.017823   0.039687
 -1.934420   0.925049   6.081872 -10.061219   8.062843   1.084028   1.847275  -3.924518  -0.528640   3.272180  -2.144179   1.110384   2.479609   1.203313  -0.218801   5.302195  -7.130235   3.672340  11.400631   9.671676  47.579162 179.996055  71.079383 -179.998080  -0.828854   5.221507   1.424435   3.665454  -0.974361  -3.941827   5.350303  -9.064230 -54.840561 -179.960230 -76.926356 -179.963760  -2.761970  -7.586453  -1.065222 -13.450506  -2.149018  -1.711654  23.394631   0.017646  -0.012403  -4.547834  -5.337130   0.343924  -0.627738  -0.003634   0.004248   7.943615   2.514936   1.773761  45.988928   0.000766   0.025507   5.790656   1.275121  -4.907765 -21.705262  -0.015342   0.042797
 -1.933108   0.922567   6.094614 -10.524456   8.486765   1.348682   2.148885  -4.171200  -0.505970   3.337167  -2.223931   1.059607   2.581999   1.148418  -0.169545   5.380421  -7.076297   3.713776  11.533831   9.649347  47.421616 179.999459  71.487692 179.998730  -0.784502   5.357601   1.338464   3.809575  -1.023322  -3.929140   5.509714  -9.127539 -54.670141 -179.962975 -77.486638 -179.967140  -2.764738  -7.627916  -1.163950 -13.450923  -2.280784  -1.718845  23.692971   0.013565  -0.009153  -3.996733  -5.328288  -0.159392  -0.376150  -0.002178   0.004123   8.092322   2.432117   2.089665  48.286922   0.001214   0.032045   5.261632   1.599399  -4.749528 -19.850301  -0.019472   0.049227
 -1.931807   0.919414   6.107473 -11.045329   8.922774   1.630721   2.449836  -4.384953  -0.490061   3.459018  -2.277990   1.008161   2.691964   1.091999  -0.123405   5.467213  -7.015863   3.769053  11.672975   9.628535  47.270842 -179.996848  71.896025 179.995189  -0.736324   5.367881   1.317564   3.967161  -1.044323  -3.919050   5.681977  -9.162784 -54.494368 -179.967458 -78.036563 -179.972052  -2.762623  -7.547493  -1.242377 -13.376011  -2.401436  -1.746588  24.156399   0.010122  -0.006005  -3.473122  -5.327286  -0.630162  -0.137646  -0.001035   0.004020   8.261109   2.344423   2.433489  50.598599   0.002142   0.037962   4.765502   1.906159  -4.596743 -18.219719  -0.021275   0.053056
 -1.930487   0.915612   6.120395 -11.561943   9.356233   1.927115   2.721284  -4.561459  -0.480031   3.586176  -2.307392   0.957436   2.797704   1.039628  -0.081599   5.557482  -6.961795   3.828869  11.811436   9.607692  47.132365 -179.993538  72.283373 179.991992  -0.689279   5.327641   1.334765   4.134939  -1.042086  -3.912759   5.861916  -9.181818 -54.328712 -179.973339 -78.558000 -179.978135  -2.758932  -7.410386  -1.311798 -13.261425  -2.512203  -1.795467  24.634287   0.007445  -0.003398  -2.981729  -5.330599  -1.069670   0.087622  -0.000173   0.003909   8.418493   2.257045   2.781912  52.795031   0.003388   0.042308   4.303455   2.191412  -4.450701 -16.727865  -0.021526   0.054993
 -1.929142   0.911160   6.133334 -12.060649   9.784147   2.234995   2.965896  -4.706656  -0.472906   3.705061  -2.316900   0.908449   2.895772   0.991362  -0.043148   5.644449  -6.910768   3.888239  11.943190   9.588561  47.004590 -179.990744  72.646756 179.989300  -0.644037   5.272485   1.368051   4.304428  -1.025004  -3.908600   6.041631  -9.190411 -54.173902 -179.979926 -79.048343 -179.984774  -2.754632  -7.251155  -1.371146 -13.123589  -2.614033  -1.860947  25.097400   0.005398  -0.001327  -2.522336  -5.337285  -1.480058   0.296268   0.000447   0.003775   8.553433   2.171259   3.126660  54.853434   0.004802   0.045091   3.871676   2.456490  -4.311367 -15.362156  -0.020686   0.055374
